<svg xmlns="http://www.w3.org/2000/svg" xmlns:xlink="http://www.w3.org/1999/xlink" width="42.458" height="42.458" viewBox="0 0 42.458 42.458"><defs><style>.a{fill:#f0bc5e;}.b{filter:url(#a);}</style><filter id="a" x="0" y="0" width="42.458" height="42.458" filterUnits="userSpaceOnUse"><feOffset dx="2" dy="1" input="SourceAlpha"/><feGaussianBlur stdDeviation="1" result="b"/><feFlood flood-opacity="0.161"/><feComposite operator="in" in2="b"/><feComposite in="SourceGraphic"/></filter></defs><g transform="translate(1 2)"><g class="b" transform="matrix(1, 0, 0, 1, -1, -2)"><path class="a" d="M34.488,34.321V0h-5.98L20.55,8.337V34.321H18.414V10.236L10.467,18.56V34.321H5.02v-2.26a3.952,3.952,0,1,0-2.136,0v2.26H0v2.136H36.458V34.321Zm-18.975-3.94H13.376V27.343h2.136Zm0-6.836H13.376V20.507h2.136Zm11.056,6.836H24.432V27.343h2.136Zm0-6.836H24.432V20.507h2.136Zm0-6.836H24.432V13.672h2.136Zm4.037,13.672H28.469V27.343h2.136Zm0-6.836H28.469V20.507h2.136Zm0-6.836H28.469V13.672h2.136Zm0-6.836H28.469V6.836h2.136Z" transform="translate(1 2)"/></g></g></svg>