<svg xmlns="http://www.w3.org/2000/svg" width="41.852" height="24.58" viewBox="0 0 41.852 24.58"><defs><style>.a{fill:#ecb500;}</style></defs><g transform="translate(-4 -164)"><g transform="translate(4 164)"><path class="a" d="M56.982,340a4.982,4.982,0,1,0,4.982,4.982A4.982,4.982,0,0,0,56.982,340Zm0,7.64a2.657,2.657,0,1,1,2.657-2.657A2.657,2.657,0,0,1,56.982,347.64Z" transform="translate(-48.014 -325.385)"/><path class="a" d="M360.982,340a4.982,4.982,0,1,0,4.982,4.982A4.982,4.982,0,0,0,360.982,340Zm0,7.64a2.657,2.657,0,1,1,2.657-2.657A2.657,2.657,0,0,1,360.982,347.64Z" transform="translate(-326.77 -325.385)"/><path class="a" d="M45.236,175.344c-3.3-1.36-8.352-3.7-8.352-3.7L32.858,165.1a2.978,2.978,0,0,0-2.32-1.1H10.625a3.634,3.634,0,0,0-3.268,2.02l-2.971,5.942A3.653,3.653,0,0,0,4,173.6V181.6a2.989,2.989,0,0,0,2.989,2.989h.085a5.979,5.979,0,1,1,11.789,0H32.318a5.979,5.979,0,1,1,11.83-.29,2.989,2.989,0,0,0,1.7-2.7v-5.339A1,1,0,0,0,45.236,175.344ZM8.683,170.912a1.328,1.328,0,0,1-1.184.727H6.208s2.109-4.18,2.9-5.694a1,1,0,0,1,.883-.534h.816a.415.415,0,0,1,.371.6l0,.007S9.454,169.393,8.683,170.912Zm4.285,4.381H11.64a1,1,0,1,1,0-1.993h1.329a1,1,0,1,1,0,1.993Zm8.968-4.65a1,1,0,0,1-1,1H12.022a1,1,0,0,1-.886-1.452c.7-1.359,1.712-3.316,2.208-4.248a1,1,0,0,1,.879-.528H20.94a1,1,0,0,1,1,1Zm5.647,4.65H26.338a1,1,0,1,1,0-1.993h1.246a1,1,0,1,1,0,1.993Zm-1.661-3.654a1,1,0,0,1-1-1v-4.235a1,1,0,0,1,1-1h5.464l3.836,6.228Z" transform="translate(-4 -164)"/></g></g></svg>