<svg xmlns="http://www.w3.org/2000/svg" width="126.287" height="28.072" viewBox="0 0 126.287 28.072"><defs><style>.a{fill:#fff;}.b{fill:#3e3e3e;}</style></defs><g transform="translate(941 -579.709)"><g transform="translate(-842.603 579.891)"><path class="a" d="M111.763,789.984H100.489a8.318,8.318,0,0,0-8.308,8.308v11.273a8.319,8.319,0,0,0,8.308,8.308h11.273a8.318,8.318,0,0,0,8.308-8.308V798.292A8.317,8.317,0,0,0,111.763,789.984Zm5.5,19.582a5.5,5.5,0,0,1-5.5,5.5H100.489a5.5,5.5,0,0,1-5.5-5.5V798.292a5.5,5.5,0,0,1,5.5-5.5h11.273a5.5,5.5,0,0,1,5.5,5.5v11.273Z" transform="translate(-92.181 -789.984)"/><path class="a" d="M103.764,794.354a7.213,7.213,0,1,0,7.213,7.213A7.22,7.22,0,0,0,103.764,794.354Zm0,11.62a4.407,4.407,0,1,1,4.407-4.407A4.408,4.408,0,0,1,103.764,805.974Z" transform="translate(-89.819 -787.622)"/><ellipse class="a" cx="1.728" cy="1.728" rx="1.728" ry="1.728" transform="translate(19.444 5.057)"/></g><g transform="translate(-883.341 579.891)"><g transform="translate(0 0)"><path class="a" d="M231.25,157.746V143.782h4.608l.728-4.627H231.25v-2.32c0-1.207.4-2.36,2.129-2.36h3.464v-4.619h-4.918c-4.135,0-5.263,2.723-5.263,6.5v2.8h-2.837v4.63h2.837v13.964Z" transform="translate(-223.825 -129.856)"/></g></g><g transform="translate(-941 579.709)"><g transform="translate(0 0)"><path class="a" d="M353.593,802.427a6.958,6.958,0,0,0,.118-.9,11.4,11.4,0,0,0-.014-1.154c-.359-6.261-6.856-11.25-14.817-11.25-8.193,0-14.835,5.281-14.835,11.8,0,5.99,5.612,10.938,12.88,11.7a.806.806,0,0,1,.716.891l-.309,2.787a.807.807,0,0,0,1.155.816c6.142-2.964,9.814-6.013,12.009-8.656.4-.48,1.7-2.3,1.964-2.783a9.882,9.882,0,0,0,1.134-3.25Zm0,0" transform="translate(-324.044 -789.126)"/><path class="b" d="M328.452,799.594v-4.971a.759.759,0,0,0-1.518,0v5.729a.758.758,0,0,0,.759.759h3.035a.759.759,0,1,0,0-1.518Zm0,0" transform="translate(-321.774 -785.405)"/><path class="b" d="M330.813,801.111h-.332a.592.592,0,0,1-.593-.593v-6.061a.592.592,0,0,1,.593-.593h.332a.594.594,0,0,1,.593.593v6.061a.594.594,0,0,1-.593.593Zm0,0" transform="translate(-319.454 -785.405)"/><path class="b" d="M335.776,794.623v3.5s-3.03-3.951-3.076-4a.745.745,0,0,0-.595-.254.777.777,0,0,0-.73.789v5.7a.759.759,0,1,0,1.518,0v-3.478s3.076,3.987,3.123,4.03a.753.753,0,0,0,.512.207.788.788,0,0,0,.766-.791v-5.7a.759.759,0,0,0-1.518,0Zm0,0" transform="translate(-318.286 -785.405)"/><path class="b" d="M339.881,794.623a.761.761,0,0,0-.761-.759h-3.035a.759.759,0,0,0-.757.759v5.729a.758.758,0,0,0,.757.759h3.035a.759.759,0,1,0,0-1.518h-2.276v-1.346h2.276a.76.76,0,1,0,0-1.519h-2.276v-1.346h2.276a.76.76,0,0,0,.761-.759Zm0,0" transform="translate(-315.181 -785.405)"/></g></g></g></svg>