<svg xmlns="http://www.w3.org/2000/svg" xmlns:xlink="http://www.w3.org/1999/xlink" width="20" height="20" viewBox="0 0 20 20">
  <defs>
    <clipPath id="clip-date">
      <rect width="20" height="20"/>
    </clipPath>
  </defs>
  <g id="date" clip-path="url(#clip-date)">
    <rect width="20" height="20" fill="#fff"/>
    <path id="calendar-alt-regular" d="M3.3,4.5H2.411c-.147,0-.268-.084-.268-.187V3.688c0-.1.121-.187.268-.187H3.3c.147,0,.268.084.268.188v.625C3.571,4.416,3.451,4.5,3.3,4.5Zm2.411-.187V3.688c0-.1-.121-.187-.268-.187H4.554c-.147,0-.268.084-.268.188v.625c0,.1.121.188.268.188h.893C5.594,4.5,5.714,4.416,5.714,4.313Zm2.143,0V3.688c0-.1-.121-.187-.268-.187H6.7c-.147,0-.268.084-.268.188v.625c0,.1.121.188.268.188h.893C7.737,4.5,7.857,4.416,7.857,4.313Zm-2.143,1.5V5.188c0-.1-.121-.187-.268-.187H4.554c-.147,0-.268.084-.268.188v.625c0,.1.121.188.268.188h.893C5.594,6,5.714,5.916,5.714,5.813Zm-2.143,0V5.188c0-.1-.121-.187-.268-.187H2.411c-.147,0-.268.084-.268.188v.625c0,.1.121.188.268.188H3.3C3.451,6,3.571,5.916,3.571,5.813Zm4.286,0V5.188c0-.1-.121-.187-.268-.187H6.7c-.147,0-.268.084-.268.188v.625c0,.1.121.188.268.188h.893C7.737,6,7.857,5.916,7.857,5.813ZM10,1.75v5.5c0,.414-.48.75-1.071.75H1.071C.48,8,0,7.664,0,7.25V1.75C0,1.336.48,1,1.071,1H2.143V.188c0-.1.121-.187.268-.187H3.3c.147,0,.268.084.268.188V1H6.429V.188c0-.1.121-.187.268-.187h.893c.147,0,.268.084.268.188V1H8.929C9.52,1,10,1.336,10,1.75ZM8.929,7.156V2.5H1.071V7.156c0,.052.06.094.134.094H8.795C8.868,7.25,8.929,7.208,8.929,7.156Z" transform="translate(5 6)"/>
  </g>
</svg>
