<svg xmlns="http://www.w3.org/2000/svg" width="32" height="27.341" viewBox="0 0 32 27.341"><defs><style>.a{fill:#ecb500;}</style></defs><g transform="translate(0 -37.27)"><g transform="translate(0 37.27)"><path class="a" d="M32,56.815a2.808,2.808,0,0,0-1.875-2.64V44.463L32,43.69,16,37.27,0,43.69l16,6.42,12.25-4.894v8.959a2.8,2.8,0,0,0-.269,5.17l-1.558,4.673,1.778.593.986-2.958.986,2.958,1.778-.593-1.558-4.673A2.808,2.808,0,0,0,32,56.815Z" transform="translate(0 -37.27)"/></g><g transform="translate(7.563 48.742)"><path class="a" d="M129.438,224.208,121,220.82v2.448c0,2.672,3.627,4.688,8.437,4.688s8.438-2.015,8.438-4.687V220.82Z" transform="translate(-121 -220.82)"/></g></g></svg>