<svg xmlns="http://www.w3.org/2000/svg" width="16.744" height="15.591" viewBox="0 0 16.744 15.591"><defs><style>.a{fill:#e79506;}</style></defs><g transform="translate(-0.001 -17.047)"><g transform="translate(0.001 17.047)"><g transform="translate(0 0)"><path class="a" d="M16.463,24.093l-2.538-2.538V18.624a.96.96,0,0,0-1.919,0v1.012l-1.889-1.89a2.525,2.525,0,0,0-3.49,0L.281,24.093A.96.96,0,0,0,1.639,25.45L7.984,19.1a.567.567,0,0,1,.777,0l6.345,6.346a.96.96,0,1,0,1.358-1.357Z" transform="translate(-0.001 -17.047)"/><path class="a" d="M75.013,127.886a.471.471,0,0,0-.667,0l-5.581,5.579a.472.472,0,0,0-.138.334v4.069a1.729,1.729,0,0,0,1.729,1.729h2.763v-4.279h3.12V139.6H79a1.729,1.729,0,0,0,1.729-1.729V133.8a.471.471,0,0,0-.138-.334Z" transform="translate(-66.308 -124.006)"/></g></g></g></svg>