<svg xmlns="http://www.w3.org/2000/svg" width="15.573" height="12.258" viewBox="0 0 15.573 12.258">
  <path id="driver-license" d="M12.562,58.15h-2.1a.608.608,0,0,1,0-1.217h2.1a.608.608,0,0,1,0,1.217Zm.608,1.855a.608.608,0,0,0-.608-.608h-2.1a.608.608,0,0,0,0,1.217h2.1A.608.608,0,0,0,13.17,60.005Zm-1.217,3.711a.608.608,0,1,0,.608-.608A.608.608,0,0,0,11.954,63.716Zm-1.217,0a.608.608,0,0,0-.608-.608H8.334a.608.608,0,0,0,0,1.217h1.795A.608.608,0,0,0,10.737,63.716Zm-4.228,0a.608.608,0,0,0-.608-.608H3.042a.608.608,0,0,0,0,1.217H5.9A.608.608,0,0,0,6.509,63.716Zm0-2.433V57.542a.608.608,0,0,0-.608-.608H3.042a.608.608,0,0,0-.608.608v3.741a.608.608,0,0,0,.608.608H5.9A.608.608,0,0,0,6.509,61.283ZM3.65,58.15H5.292v2.525H3.65Zm4.076-.608a.608.608,0,1,0,.608-.608A.608.608,0,0,0,7.726,57.542Zm.03,2.464a.608.608,0,1,0,.608-.608A.608.608,0,0,0,7.756,60.005Zm7.817,4.319a.608.608,0,1,0-1.217,0,1.218,1.218,0,0,1-1.217,1.217H2.433a1.218,1.218,0,0,1-1.217-1.217V56.933a1.218,1.218,0,0,1,1.217-1.217H13.14a1.218,1.218,0,0,1,1.217,1.217v4.35a.608.608,0,1,0,1.217,0v-4.35A2.436,2.436,0,0,0,13.14,54.5H2.433A2.436,2.436,0,0,0,0,56.933v7.391a2.436,2.436,0,0,0,2.433,2.433H13.14A2.436,2.436,0,0,0,15.573,64.325Z" transform="translate(0 -54.5)" fill="#f0bc5e"/>
</svg>
