<svg xmlns="http://www.w3.org/2000/svg" width="28.917" height="23.495" viewBox="0 0 28.917 23.495"><defs><style>.a{fill:#fff;}</style></defs><g transform="translate(0 -48)"><g transform="translate(3.615 66.073)"><path class="a" d="M82.977,368a2.7,2.7,0,0,0-2.545,1.807H69.256a2.711,2.711,0,1,0,0,1.807H80.432A2.706,2.706,0,1,0,82.977,368Z" transform="translate(-64 -368)"/></g><g transform="translate(0 48)"><path class="a" d="M6.326,48A6.332,6.332,0,0,0,0,54.326c0,3.246,5.075,8.995,5.653,9.64a.9.9,0,0,0,1.345,0c.578-.645,5.653-6.394,5.653-9.64A6.332,6.332,0,0,0,6.326,48Zm0,9.037a2.711,2.711,0,1,1,2.711-2.711A2.712,2.712,0,0,1,6.326,57.037Z" transform="translate(0 -48)"/></g><g transform="translate(16.266 48)"><path class="a" d="M294.326,48A6.333,6.333,0,0,0,288,54.326c0,3.246,5.075,8.995,5.653,9.64a.9.9,0,0,0,1.345,0c.578-.645,5.653-6.394,5.653-9.64A6.333,6.333,0,0,0,294.326,48Zm0,9.037a2.711,2.711,0,1,1,2.711-2.711A2.712,2.712,0,0,1,294.326,57.037Z" transform="translate(-288 -48)"/></g></g></svg>