<svg xmlns="http://www.w3.org/2000/svg" xmlns:xlink="http://www.w3.org/1999/xlink" width="40.183" height="41.183" viewBox="0 0 40.183 41.183"><defs><style>.a{fill:#f0bc5e;}.b{filter:url(#a);}</style><filter id="a" x="0.135" y="0" width="40.048" height="41.183" filterUnits="userSpaceOnUse"><feOffset dx="2" dy="1" input="SourceAlpha"/><feGaussianBlur stdDeviation="1" result="b"/><feFlood flood-opacity="0.161"/><feComposite operator="in" in2="b"/><feComposite in="SourceGraphic"/></filter></defs><g transform="translate(-1 1)"><path class="a" d="M11.885,54.089l-1.5-.215L9.6,52.9a5.063,5.063,0,0,0-6.558-1.179L2.587,52A3.288,3.288,0,0,0,1,54.8,3.009,3.009,0,0,0,4.009,57.81h10.61v-.567a3.2,3.2,0,0,0-2.734-3.153ZM4.009,56.675A1.875,1.875,0,0,1,2.135,54.8a2.148,2.148,0,0,1,1.037-1.832l.458-.275a3.927,3.927,0,0,1,5.086.915l.338.423-1.775.355-1.559-.52L5.36,54.943l1.845.615,2.89-.578,1.629.233A2.063,2.063,0,0,1,13.4,56.675Z" transform="translate(0 -21.627)"/><g class="b" transform="matrix(1, 0, 0, 1, 1, -1)"><path class="a" d="M34.859,27.393l-.4-.066a1.708,1.708,0,0,1-1.314-1.082l-.76-2.028A2.829,2.829,0,0,0,30.082,22.4l-1.189-.149A1.7,1.7,0,0,1,27.4,20.56V16.6l.212.168a4.594,4.594,0,0,0,3.193,1.259h.567V7.81h-.567A3.5,3.5,0,0,1,28.323,6.8a4.678,4.678,0,0,0-6.386,0,3.553,3.553,0,0,1-4.964,0,4.972,4.972,0,0,0-2.158-1.153,2.812,2.812,0,0,0,.67-1.809,2.837,2.837,0,1,0-4.54,2.255v6.824h-.567A2.841,2.841,0,0,0,7.54,15.754v.851L4.717,18.723A4.313,4.313,0,0,0,3,22.156a4.263,4.263,0,0,0,1.257,3.035l2.217,2.217a2.819,2.819,0,0,0,2.007.831h4.665A1.7,1.7,0,0,1,14.8,29.528l.328,1.313a5.405,5.405,0,0,0,1.738,2.812l1.424,1.22a5.44,5.44,0,0,0,5.751.841l4.051-1.8h5.159l2.634-1.756a2.62,2.62,0,0,0-1.023-4.764ZM19.454,8.945a4.6,4.6,0,0,0,3.193-1.259,3.557,3.557,0,0,1,4.967,0,4.7,4.7,0,0,0,2.625,1.23v7.935a3.7,3.7,0,0,1-1.916-.972,4.678,4.678,0,0,0-6.386,0,3.553,3.553,0,0,1-4.964,0,4.7,4.7,0,0,0-2.623-1.23V6.718a3.715,3.715,0,0,1,1.914.967,4.587,4.587,0,0,0,3.19,1.26Zm-6.807-6.81a1.7,1.7,0,1,1-1.7,1.7A1.7,1.7,0,0,1,12.647,2.135ZM7.276,26.605,5.059,24.389a3.136,3.136,0,0,1-.924-2.232A3.173,3.173,0,0,1,5.4,19.631l3.277-2.458V15.754a1.7,1.7,0,0,1,1.7-1.7h.567V27.1H8.48a1.693,1.693,0,0,1-1.2-.5Zm4.8.5V6.617a2.838,2.838,0,0,0,1.135,0V27.109c-.024,0-.046-.006-.07-.006Zm23.173,4.11L32.9,32.778H27.848l-4.272,1.9a4.37,4.37,0,0,1-4.552-.666L17.6,32.791a4.284,4.284,0,0,1-1.376-2.225L15.9,29.253a2.825,2.825,0,0,0-1.548-1.872V15.8a3.715,3.715,0,0,1,1.914.967,4.674,4.674,0,0,0,6.383,0,3.5,3.5,0,0,1,2.484-1.01,3.412,3.412,0,0,1,1.136.175V20.56a2.841,2.841,0,0,0,2.486,2.815l1.189.149a1.7,1.7,0,0,1,1.383,1.091l.76,2.028a2.845,2.845,0,0,0,2.19,1.8l.4.066a1.486,1.486,0,0,1,.58,2.7Z" transform="translate(-1.87 1)"/></g></g></svg>