<svg xmlns="http://www.w3.org/2000/svg" width="37.118" height="34.219" viewBox="0 0 37.118 34.219"><defs><style>.a{fill:#ecb500;}</style></defs><g transform="translate(0 0)"><path class="a" d="M80.725,247.579a.725.725,0,1,0-.513-.212A.731.731,0,0,0,80.725,247.579Zm0,0" transform="translate(-74.2 -228.285)"/><path class="a" d="M29.932,19.058A5,5,0,1,0,32.869,9.61a8.011,8.011,0,1,0-15.862-1.6c0,.259.012.519.037.777a6.418,6.418,0,0,0-3.953,9.056H9.425a.725.725,0,0,0,0,1.45h8.41v3.19H1.45v-3.19H3.625a.725.725,0,1,0,0-1.45H.725A.725.725,0,0,0,0,18.568v4.64a.725.725,0,0,0,.725.725H2.9v2.6H.725A.725.725,0,0,0,0,27.259v2.9a.725.725,0,0,0,.725.725H2.9v1.885H.725a.725.725,0,0,0,0,1.45H32.479a.725.725,0,0,0,0-1.45h-.073c0-.078.007-.155.007-.233a4.149,4.149,0,0,0-6.669-3.3V22.109a5.471,5.471,0,0,0,4.189-3.052ZM14.783,17.844a4.963,4.963,0,0,1,3.194-7.782.725.725,0,0,0,.591-.847,6.561,6.561,0,1,1,13.011-1.2,6.553,6.553,0,0,1-.326,2.046.725.725,0,0,0,.718.95c.048,0,.1,0,.145,0A3.552,3.552,0,1,1,30,17.406a.725.725,0,0,0-1.132.386,4.006,4.006,0,0,1-3.121,2.849V15.859l3.6-3.6a.725.725,0,1,0-1.025-1.025l-2.573,2.573v-2.9a.725.725,0,1,0-1.45,0v4.651h0v.854L21.484,13.6a.725.725,0,0,0-1.025,1.025l3.79,3.79c.014.014.029.027.044.04v2.183a3.951,3.951,0,0,1-2.2-1.206.725.725,0,0,0-.881-.14,4.959,4.959,0,0,1-1.931.6V18.568a.725.725,0,0,0-.725-.725H14.783Zm3.776,6.09a.725.725,0,0,0,.725-.725V21.347a6.43,6.43,0,0,0,2.146-.539,5.47,5.47,0,0,0,2.863,1.3v7.637a3.781,3.781,0,0,0-3.266,3.022H16.384V30.884h2.175a.725.725,0,0,0,.725-.725v-2.9a.725.725,0,0,0-.725-.725H16.384v-2.6Zm-14.209,0H14.934v2.6H4.35Zm-2.9,4.05H17.834v1.45H1.45Zm2.9,2.9H14.934v1.885H4.35Zm21.713.077a2.7,2.7,0,0,1,4.9,1.574q0,.117-.01.233h-8.43A2.325,2.325,0,0,1,25.3,31.241a.725.725,0,0,0,.765-.28Zm0,0"/><path class="a" d="M335.815,101.9a.725.725,0,1,0-.513-.212A.729.729,0,0,0,335.815,101.9Zm0,0" transform="translate(-310.797 -93.167)"/></g></svg>