<svg xmlns="http://www.w3.org/2000/svg" width="13.104" height="19.057" viewBox="0 0 13.104 19.057">
  <g id="pin_1_" data-name="pin (1)" transform="translate(-79.968 0)">
    <path id="Path_2342" data-name="Path 2342" d="M92.161,3.263A6.467,6.467,0,0,0,86.666,0c-.1,0-.2,0-.293,0a6.467,6.467,0,0,0-5.5,3.262,6.634,6.634,0,0,0-.087,6.555l4.726,8.649.006.011a1.149,1.149,0,0,0,1.993,0l.006-.011,4.726-8.649a6.635,6.635,0,0,0-.087-6.555ZM86.52,8.635a2.68,2.68,0,1,1,2.68-2.68A2.683,2.683,0,0,1,86.52,8.635Z" transform="translate(0 0)" fill="#f0bc5e"/>
  </g>
</svg>
