<svg xmlns="http://www.w3.org/2000/svg" width="33.833" height="33.833" viewBox="0 0 33.833 33.833"><defs><style>.a{fill:#fff;}</style></defs><g transform="translate(0 0)"><path class="a" d="M176.253,128.454l4.673-14.018a.991.991,0,1,0-1.881-.627l-4.673,14.018a.991.991,0,1,0,1.881.627Z" transform="translate(-162.802 -105.655)"/><path class="a" d="M267.507,195.15a2.974,2.974,0,1,0-2.974-2.974A2.977,2.977,0,0,0,267.507,195.15Zm0-3.965a.991.991,0,1,1-.991.991A.992.992,0,0,1,267.507,191.185Z" transform="translate(-247.052 -176.7)"/><path class="a" d="M97.8,189.2a2.974,2.974,0,1,0,2.974,2.974A2.977,2.977,0,0,0,97.8,189.2Zm0,3.965a.991.991,0,1,1,.991-.991A.992.992,0,0,1,97.8,193.168Z" transform="translate(-88.561 -176.7)"/><path class="a" d="M33.635,12.291,30.179,7.683l.135-.944a.991.991,0,0,0-.28-.841l-2.1-2.1,2.1-2.1a.991.991,0,0,0-1.4-1.4l-2.1,2.1-2.1-2.1a.992.992,0,0,0-.841-.28l-9.813,1.4a.991.991,0,0,0-.561.28L1.063,13.841a3.639,3.639,0,0,0,0,5.14l10.28,10.28a3.625,3.625,0,0,0,.684.536v.4a3.639,3.639,0,0,0,3.634,3.634H30.2A3.639,3.639,0,0,0,33.833,30.2V12.886a.991.991,0,0,0-.2-.595ZM2.465,17.579a1.654,1.654,0,0,1,0-2.336L14.38,3.328l8.995-1.285L25.127,3.8l-1.4,1.4-.7-.7a.991.991,0,0,0-1.4,1.4l2.8,2.8a.991.991,0,0,0,1.4-1.4l-.7-.7,1.4-1.4,1.752,1.752L27,15.944,15.081,27.859a1.652,1.652,0,0,1-2.336,0ZM31.851,30.2A1.654,1.654,0,0,1,30.2,31.851H15.661a1.654,1.654,0,0,1-1.647-1.53,3.62,3.62,0,0,0,2.468-1.06L28.631,17.112a.991.991,0,0,0,.28-.561l.87-6.093,2.069,2.758Z" transform="translate(0 0)"/></g></svg>