<svg xmlns="http://www.w3.org/2000/svg" width="27.035" height="27.051" viewBox="0 0 27.035 27.051"><defs><style>.a{fill:#ecb500;}</style></defs><g transform="translate(-0.153)"><g transform="translate(1.658)"><path class="a" d="M53.471,23,42.863,12.393,30.47,0H29.5l-.2.5a8.885,8.885,0,0,0-.645,3.923,5.541,5.541,0,0,0,1.553,3.539l9.675,9.675,1.276-1.276,8.944,10A2.379,2.379,0,0,0,53.471,23Z" transform="translate(-28.636)"/></g><g transform="translate(0.153 15.398)"><g transform="translate(0)"><path class="a" d="M8.426,291.442.849,299.019a2.378,2.378,0,0,0,3.364,3.364l7.577-7.577Z" transform="translate(-0.153 -291.442)"/></g></g><g transform="translate(14.64 0.019)"><path class="a" d="M285.761,4.846l-4.3,4.3-1.121-1.121,4.3-4.3L283.518,2.6l-4.3,4.3L278.1,5.78l4.3-4.3L281.276.361,275.67,5.967a3.957,3.957,0,0,0-1.153,2.564,2.284,2.284,0,0,1-.162.716L278,12.889a2.282,2.282,0,0,1,.716-.162,3.957,3.957,0,0,0,2.564-1.153l5.606-5.606Z" transform="translate(-274.354 -0.361)"/></g></g></svg>