<svg xmlns="http://www.w3.org/2000/svg" width="28.154" height="22.161" viewBox="0 0 28.154 22.161"><defs><style>.a{fill:#f0bc5e;}</style></defs><path class="a" d="M22.711,61.1H18.916a1.1,1.1,0,0,1,0-2.2h3.794a1.1,1.1,0,1,1,0,2.2Zm1.1,3.354a1.1,1.1,0,0,0-1.1-1.1H18.916a1.1,1.1,0,0,0,0,2.2h3.794A1.1,1.1,0,0,0,23.81,64.453Zm-2.2,6.709a1.1,1.1,0,1,0,1.1-1.1A1.1,1.1,0,0,0,21.611,71.162Zm-2.2,0a1.1,1.1,0,0,0-1.1-1.1H15.067a1.1,1.1,0,0,0,0,2.2h3.244A1.1,1.1,0,0,0,19.411,71.162Zm-7.643,0a1.1,1.1,0,0,0-1.1-1.1H5.5a1.1,1.1,0,0,0,0,2.2h5.169A1.1,1.1,0,0,0,11.768,71.162Zm0-4.4V60a1.1,1.1,0,0,0-1.1-1.1H5.5A1.1,1.1,0,0,0,4.4,60v6.764a1.1,1.1,0,0,0,1.1,1.1h5.169A1.1,1.1,0,0,0,11.768,66.763ZM6.6,61.1H9.568v4.564H6.6ZM13.967,60a1.1,1.1,0,1,0,1.1-1.1A1.1,1.1,0,0,0,13.967,60Zm.055,4.454a1.1,1.1,0,1,0,1.1-1.1A1.1,1.1,0,0,0,14.022,64.453Zm14.132,7.808a1.1,1.1,0,1,0-2.2,0,2.2,2.2,0,0,1-2.2,2.2H4.4a2.2,2.2,0,0,1-2.2-2.2V58.9a2.2,2.2,0,0,1,2.2-2.2H23.755a2.2,2.2,0,0,1,2.2,2.2v7.863a1.1,1.1,0,1,0,2.2,0V58.9a4.4,4.4,0,0,0-4.4-4.4H4.4A4.4,4.4,0,0,0,0,58.9V72.262a4.4,4.4,0,0,0,4.4,4.4H23.755A4.4,4.4,0,0,0,28.154,72.262Z" transform="translate(0 -54.5)"/></svg>