<svg xmlns="http://www.w3.org/2000/svg" width="36.431" height="32.5" viewBox="0 0 36.431 32.5"><defs><style>.a{fill:#ecb500;}</style></defs><path class="a" d="M10.531,52.634a1.2,1.2,0,0,1,0-2.4c4.424.015,16.091,0,20.655.007a2.653,2.653,0,0,0,2.6-2.066l2.592-11.223a2.157,2.157,0,0,0-2.093-2.642c-1.836,0-17.422-.071-25.4-.1l-1.265-4.7a2.585,2.585,0,0,0-2.49-1.906H1.068a1.068,1.068,0,1,0,0,2.136H5.122a.445.445,0,0,1,.428.327L10.41,48.1A3.333,3.333,0,0,0,7.2,51.493a3.35,3.35,0,0,0,3.334,3.276h1.557a3.738,3.738,0,1,0,6.753,0h6.743a3.738,3.738,0,1,0,6.725-.056,1.067,1.067,0,0,0-.341-2.079Zm6.535,3.738a1.6,1.6,0,1,1-1.6-1.6h0A1.6,1.6,0,0,1,17.066,56.371Zm11.894,1.6a1.6,1.6,0,0,1-.026-3.2h.052a1.6,1.6,0,0,1-.026,3.2ZM34.29,36.456a.017.017,0,0,1,0,.018L33.2,41.2H29.5l.63-4.772,4.14.017A.017.017,0,0,1,34.29,36.456ZM23.28,48.107V43.339h3.788l-.629,4.769Zm-5.3,0-.634-4.769h3.794v4.769Zm-4.916,0h0a.579.579,0,0,1-.557-.426l-1.171-4.343H15.2l.634,4.769Zm4-6.9-.642-4.827,4.72.019V41.2Zm6.214,0V36.4l4.7.019L27.35,41.2Zm-9.012-4.836.643,4.835h-4.15L9.454,36.348Zm16.918,11.74H28.593l.629-4.769h3.486L31.7,47.7A.527.527,0,0,1,31.186,48.107Z" transform="translate(0 -27.609)"/></svg>