<svg xmlns="http://www.w3.org/2000/svg" width="12.404" height="13.455" viewBox="0 0 12.404 13.455">
  <g id="stopwatch" transform="translate(-20)">
    <g id="Group_27" data-name="Group 27" transform="translate(20)">
      <g id="Group_26" data-name="Group 26">
        <path id="Path_27" data-name="Path 27" d="M384.837,14.439l1.427,1.19a.526.526,0,1,0,.673-.807l-1.427-1.19a.526.526,0,1,0-.673.807Z" transform="translate(-375.065 -13.154)" fill="#e79506"/>
        <path id="Path_28" data-name="Path 28" d="M33.571,15.751a.523.523,0,0,0,.336-.122l1.427-1.19a.526.526,0,1,0-.673-.807l-1.427,1.19a.526.526,0,0,0,.337.929Z" transform="translate(-32.702 -13.155)" fill="#e79506"/>
        <path id="Path_29" data-name="Path 29" d="M30.587,2.868a6.155,6.155,0,0,0-3.86-1.794V.526a.526.526,0,1,0-1.051,0v.548a6.2,6.2,0,0,0-3.86,10.565,6.2,6.2,0,0,0,8.061.61.526.526,0,1,0-.624-.846,5.144,5.144,0,1,1,1.464-1.67.526.526,0,1,0,.921.507,6.205,6.205,0,0,0-1.051-7.372Z" transform="translate(-20)" fill="#e79506"/>
        <path id="Path_30" data-name="Path 30" d="M219.612,151.265a.526.526,0,0,0-.739.078l-1.657,2.048a1.052,1.052,0,1,0,.817.661L219.69,152A.526.526,0,0,0,219.612,151.265Z" transform="translate(-210.849 -147.176)" fill="#e79506"/>
      </g>
    </g>
  </g>
</svg>
