<svg xmlns="http://www.w3.org/2000/svg" width="22.903" height="24.844" viewBox="0 0 22.903 24.844"><defs><style>.a{fill:#f0bc5e;}</style></defs><path class="a" d="M385,15.225l2.635,2.2a.97.97,0,1,0,1.243-1.491l-2.635-2.2A.97.97,0,1,0,385,15.225Z" transform="translate(-366.954 -12.854)"/><path class="a" d="M34.016,17.648a.966.966,0,0,0,.621-.225l2.635-2.2a.97.97,0,1,0-1.243-1.491l-2.635,2.2a.97.97,0,0,0,.622,1.716Z" transform="translate(-32.412 -12.854)"/><path class="a" d="M39.549,5.3a11.365,11.365,0,0,0-7.127-3.313V.97a.97.97,0,1,0-1.941,0V1.982A11.452,11.452,0,0,0,23.354,21.49a11.453,11.453,0,0,0,14.884,1.127.97.97,0,1,0-1.151-1.563,9.5,9.5,0,1,1,2.7-3.084.97.97,0,1,0,1.7.936A11.458,11.458,0,0,0,39.549,5.3Z" transform="translate(-20)"/><path class="a" d="M222.669,151.364a.971.971,0,0,0-1.365.144l-3.06,3.781a1.943,1.943,0,1,0,1.508,1.221l3.06-3.782A.97.97,0,0,0,222.669,151.364Z" transform="translate(-206.489 -143.813)"/></svg>