<svg xmlns="http://www.w3.org/2000/svg" width="335.667" height="92.135" viewBox="0 0 335.667 92.135"><defs><style>.a{fill:#726a5b;}.b{fill:#e79506;}.c{fill:#fff;}.d{fill:#f8b825;}</style></defs><g transform="translate(-60.96 -35.683)"><rect class="a" width="232.054" height="22.905" transform="translate(162.84 100.175)"/><path class="b" d="M213.737,90.726h14.494v4.337H194.69V90.726h14.276V77.859H197.111V73.485h11.855V62.137h4.77V73.485h12.036v4.374H213.737Z" transform="translate(-30.116 -5.957)"/><path class="b" d="M253.48,74.719v8.747q.687-.289,1.952-.813t1.482-.633l.976,3.868q-4.88,2.422-11.53,5.53l-1.771-4.446q1.011-.361,4.807-1.843V74.719h-4.337V70.527H249.4V62.5h4.084v8.024h3.759v4.192Zm12.65,17.24h7.12a2.09,2.09,0,0,0,1.988-.885A10.808,10.808,0,0,0,276,87.334a9.539,9.539,0,0,0,3.831,1.59q-.434,3.976-1.735,5.476t-4.482,1.5h-7.879q-3.76,0-5.1-1.355t-1.337-5.15V79.888l-1.988.868-1.626-3.94L259.3,75.3V65.575h4.228V73.49l3.073-1.3V62h4.084v8.421l2.927-1.265q.795-.506,1.554-1.012l3.073,1.048-.145.759q0,10.843-.253,12.976A3.2,3.2,0,0,1,275.961,86a10.374,10.374,0,0,1-3.868.542,10.369,10.369,0,0,0-.9-3.722,16.322,16.322,0,0,0,1.771.072.73.73,0,0,0,.506-.163,1.237,1.237,0,0,0,.289-.633q.144-1.155.145-8.565l-3.217,1.409V88.02H266.6V76.707l-3.073,1.337V89.43a3.079,3.079,0,0,0,.47,2.079A3.333,3.333,0,0,0,266.13,91.959Z" transform="translate(-41.353 -5.926)"/><path class="b" d="M317.817,77.213l4.735,1.337a27.227,27.227,0,0,1-5.675,8.674q5.312,3.8,13.915,5.169A16,16,0,0,0,329.22,94.4a15.721,15.721,0,0,0-1.283,2.187q-9-1.7-14.565-6.253a40.713,40.713,0,0,1-14.421,6.325,17.073,17.073,0,0,0-2.783-4.157q8.783-1.7,13.952-5.313a33.178,33.178,0,0,1-5.1-8.53l4.192-1.229a22.136,22.136,0,0,0,4.265,6.831A20.594,20.594,0,0,0,317.817,77.213Zm-11.855-6.361,4.554,1.807a33.338,33.338,0,0,1-4.7,4.9,45.038,45.038,0,0,1-5.53,4.138,29.594,29.594,0,0,0-3.686-3.4,31.084,31.084,0,0,0,5.241-3.343A21.74,21.74,0,0,0,305.962,70.852Zm10.987,2.277,3.542-2.566H297.107v-4.3h13.987V62h4.518v4.264h14.2v4.3h-9.109a51.579,51.579,0,0,1,9.579,7.77l-3.94,3.036Q324,78.333,316.949,73.129Z" transform="translate(-52.969 -5.926)"/><path class="b" d="M359.376,81.29h20.457q-.073,1.192-.145,1.735a74.036,74.036,0,0,1-1.247,8.765,8.354,8.354,0,0,1-1.608,3.814,4.588,4.588,0,0,1-3,1.409,41.524,41.524,0,0,1-4.626.072,7.582,7.582,0,0,0-1.157-3.723q1.554.145,3.686.145a1.786,1.786,0,0,0,1.374-.47q1.266-1.192,1.952-7.915h-3.181a31.566,31.566,0,0,1-3.65,6.831,27.593,27.593,0,0,1-4.844,5.349,16.326,16.326,0,0,0-3.47-2.675,22.018,22.018,0,0,0,7.41-9.505h-3.181a32.667,32.667,0,0,1-4.915,6.253,33.73,33.73,0,0,1-6.109,4.879,16.584,16.584,0,0,0-1.518-1.626,19.241,19.241,0,0,0-1.735-1.518,25.062,25.062,0,0,0,9.325-7.987h-3.253a34.8,34.8,0,0,1-5.711,4.481,19.189,19.189,0,0,0-3.325-3.109,25.9,25.9,0,0,0,8.855-7.481h-3.253V64.049h24.361V79.013h-15.94A26.131,26.131,0,0,1,359.376,81.29Zm-2.53-13.7v2.277h15.542V67.591Zm0,5.6v2.313h15.542V73.194Z" transform="translate(-64.395 -6.388)"/><path class="b" d="M399.566,69.309l2.964.4a24.425,24.425,0,0,1-1.843,10.59L397.831,79Q399.493,75.814,399.566,69.309Zm24.288,4.446h9v3.4H410.12V74.586l-1.085.506a19.89,19.89,0,0,0-1.735-5.169V96.561h-4.264V62.044H407.3v6.108l1.88-.831a23.174,23.174,0,0,1,2.6,6.434h7.374V72.164h-6.361V69.128h6.361V67.646h-7.7V64.465h7.7V62.044h4.7v2.421H431.7v3.181h-7.843v1.482H430.9v3.036h-7.048Zm6.976,5.024V92.3a6.352,6.352,0,0,1-.343,2.349A2.4,2.4,0,0,1,429.2,95.91q-1.374.687-5.385.687a12.5,12.5,0,0,0-1.193-3.8q2.6.073,3.4,0,.614,0,.614-.542V88.971H417.1v7.59h-4.157V78.778ZM417.1,82.248v3.217h2.819V82.248Zm6.614,3.217h2.928V82.248h-2.928Z" transform="translate(-75.863 -5.937)"/><path class="b" d="M476.744,86.812l2.494-.9a15.652,15.652,0,0,1,2.132,4.59,15.317,15.317,0,0,0,2.747.867q-.361,2.857-1.446,3.85a5.425,5.425,0,0,1-3.686.993h-6.4q-3.47,0-4.663-1.012T466.732,91.4v-7.12h-2.747a21.165,21.165,0,0,1-.686,3.344,12.534,12.534,0,0,1-1.3,2.855,9.908,9.908,0,0,1-2.15,2.494,14.868,14.868,0,0,1-3.289,1.987,26,26,0,0,1-4.681,1.573,12.615,12.615,0,0,0-2.422-3.831,23.25,23.25,0,0,0,4.753-1.356,8.646,8.646,0,0,0,2.946-1.933,7.536,7.536,0,0,0,1.518-2.277,12.653,12.653,0,0,0,.723-2.856h-5.82V70.945h10.409a21.541,21.541,0,0,0,.868-2.638l4.59.578a21.971,21.971,0,0,1-1.192,2.06h11.891V84.282h-9.216v7.084q0,.833.361,1.03a4.688,4.688,0,0,0,1.771.2h5.53a1.828,1.828,0,0,0,1.211-.307,2.13,2.13,0,0,0,.487-1.247l-1.445.578a8.6,8.6,0,0,0-.325-1.085q-.724.073-3.091.4t-3.524.433l-.868-2.782,1.591-.073q.687-2.892.831-4.084l3.253.578q-.795,2.242-1.192,3.325l1.988-.144Q476.888,87.028,476.744,86.812ZM458.094,69.68V67.621h-7.7V63.933h7.7V62.09h4.3v1.843h8.494V62.09h4.264v1.843h8.06v3.687h-8.06V69.68h-4.264V67.621H462.4V69.68Zm-.217,4.337v2.169h6.795V74.017Zm0,5.06V81.21h6.795V79.077Zm17.783-2.892V74.017h-6.9v2.169Zm0,5.024V79.077h-6.9V81.21Z" transform="translate(-87.49 -5.947)"/><g transform="translate(187.732 105.068)"><path class="c" d="M231.021,131.374l-.739.725q-.488-.418-2.189-1.59a6.1,6.1,0,0,1-2.844,2.3,2.068,2.068,0,0,0-.669-.739,4.526,4.526,0,0,0,2.872-2.523H224.7v-.865h2.928a3.619,3.619,0,0,0,.028-.516v-.837h-1.2a6.462,6.462,0,0,1-.893,1.283,5.422,5.422,0,0,0-.865-.516,6.55,6.55,0,0,0,1.618-2.844l.962.181q-.056.209-.39,1.046h3.876v.85h-2.091v.837a3.622,3.622,0,0,1-.028.516h2.482v.865H228.5c-.009.037-.033.116-.07.236A29.832,29.832,0,0,1,231.021,131.374Zm-4.238,6.958v-5.856h8.7V138.3h-1.059v-.5h-6.6v.53Zm7.64-4.992h-6.6v1.353h6.6Zm-6.6,3.583h6.6v-1.409h-6.6Zm3.89-10.485H236.7v4.949h-4.977Zm3.946,3.987v-3.04h-2.943v3.04Z" transform="translate(-224.579 -125.239)"/><path class="c" d="M271.443,126.628l.865-.335a12.742,12.742,0,0,1,1.868,3.165l-.907.4q-.082-.236-.376-.85-.614.028-2.642.146t-2.865.16l-.1-1q.6-.028,1.087-.042a20.908,20.908,0,0,0,1.311-2.984l1.073.251q-.907,2.022-1.282,2.691l2.928-.126A15.361,15.361,0,0,0,271.443,126.628Zm1.757,3.708v6.776a1.558,1.558,0,0,1-.1.642.733.733,0,0,1-.384.349,6.444,6.444,0,0,1-1.911.181,3.3,3.3,0,0,0-.348-.962,12.829,12.829,0,0,0,1.478,0,.176.176,0,0,0,.223-.223v-1.687h-3.012v2.9h-.99v-7.975Zm-1.046.893h-3.012v1.227h3.012Zm-3.012,3.374h3.012v-1.325h-3.012Zm9.551-3.1h-2.441a2.2,2.2,0,0,1-1.366-.3,1.529,1.529,0,0,1-.349-1.178v-4.712h1.046V127.7a22.97,22.97,0,0,0,3.3-1.338l.71.766a30.511,30.511,0,0,1-4.015,1.436v1.45q0,.349.139.446a1.228,1.228,0,0,0,.613.1h2.273a.513.513,0,0,0,.529-.293,4.833,4.833,0,0,0,.167-1.352,2.726,2.726,0,0,0,.976.418,3.69,3.69,0,0,1-.418,1.736A1.362,1.362,0,0,1,278.694,131.508Zm-2.315,5.758h2.343a.565.565,0,0,0,.585-.342,5.885,5.885,0,0,0,.2-1.54,2.492,2.492,0,0,0,.948.4,4.451,4.451,0,0,1-.439,1.925,1.349,1.349,0,0,1-1.206.488h-2.524a2.233,2.233,0,0,1-1.388-.307,1.535,1.535,0,0,1-.356-1.185v-4.8h1.046v2.259a14.52,14.52,0,0,0,3.472-1.506l.7.809a20.76,20.76,0,0,1-4.168,1.576v1.659q0,.349.146.453A1.283,1.283,0,0,0,276.379,137.266Z" transform="translate(-234.197 -125.247)"/><path class="c" d="M314.861,125.345l1,.321a23,23,0,0,1-1.492,3.123v9.522h-1.017v-7.989a14.5,14.5,0,0,1-1.409,1.729,3.817,3.817,0,0,0-.6-1.032,13.159,13.159,0,0,0,1.98-2.53A17.436,17.436,0,0,0,314.861,125.345Zm9.83,4.1h-4.058v2.9h3.193v5.94h-1.073v-.558h-5.215v.614h-1.045v-6h3.067v-2.9h-3.876v-1.032h3.876v-3.123h1.073v3.123h4.058Zm-1.938,7.264v-3.374h-5.215v3.374Z" transform="translate(-244.119 -125.247)"/><path class="c" d="M358.68,125.4l.976.279a24.619,24.619,0,0,1-1.116,2.775v9.9h-1v-8a15.007,15.007,0,0,1-1.353,1.925,5.514,5.514,0,0,0-.544-1.074,13.329,13.329,0,0,0,1.722-2.6A19.456,19.456,0,0,0,358.68,125.4Zm3.974,10.959.781.53a10.472,10.472,0,0,1-3.528,1.478,4.173,4.173,0,0,0-.6-.711,11.708,11.708,0,0,0,1.84-.565A9.142,9.142,0,0,0,362.654,136.356Zm-.112-8.658v-.836h-2.789v-.823h9.091v.823h-2.97v.836H368.4v2.761h-8.31V127.7Zm5.7,8.561h-7.849v-5.117h7.849Zm-7.223-7.863v1.367h1.52v-1.367Zm.349,3.43v.795h5.842v-.795Zm0,1.45v.823h5.842v-.823Zm0,1.478v.836h5.842v-.836Zm3.611-7.055v-.836H363.42v.836Zm-1.562.7v1.367h1.562v-1.367Zm1.562,8.589.683-.6a27.976,27.976,0,0,1,3.43,1.381l-.893.628A18.3,18.3,0,0,0,364.982,136.983Zm2.454-8.589h-1.561v1.367h1.561Z" transform="translate(-254.094 -125.271)"/><path class="c" d="M412.793,132.558v1.031h-5.884v5.005h-1.088V133.59h-5.744v-1.031h5.744v-4.992H400.83v-1.017h11.154v1.017h-5.075v4.992Zm-9.272-4.392,1.059.321a12.185,12.185,0,0,1-2.551,3.458,3.652,3.652,0,0,0-.85-.6,8.745,8.745,0,0,0,1.338-1.478A9.187,9.187,0,0,0,403.521,128.166Zm4.573.446.865-.474a19.269,19.269,0,0,1,1.575,1.66,10.617,10.617,0,0,1,1.144,1.575l-.934.53a10.431,10.431,0,0,0-1.115-1.611A18.843,18.843,0,0,0,408.094,128.612Z" transform="translate(-264.101 -125.531)"/><path class="c" d="M451.479,127.521l.823-.6a27.423,27.423,0,0,1,2.245,2.029,11.427,11.427,0,0,1,1.618,1.945l-.92.711a11.54,11.54,0,0,0-1-1.381q-1.826.1-10.61.474l-.07-1.059q.474-.014,2.133-.07a27.7,27.7,0,0,0,2.371-4.336l1.171.4a38.089,38.089,0,0,1-2.314,3.876q2.1-.07,6.414-.265Q452.4,128.3,451.479,127.521Zm-6.26,10.791v-6.036h9.049v6.009h-1.129v-.6h-6.846v.627Zm7.92-5.047h-6.846v3.4h6.846Z" transform="translate(-273.894 -125.235)"/></g><path class="a" d="M136.858,106.341a10.346,10.346,0,0,0,10.333,10.334v-2.067a8.267,8.267,0,0,1,0-16.533V96.007A10.346,10.346,0,0,0,136.858,106.341Z" transform="translate(-17.092 -13.585)"/><path class="a" d="M153.078,69.32h-55.8a3.114,3.114,0,0,0-3.11,3.11V124.1a3.113,3.113,0,0,0,3.11,3.109h36.168a4.134,4.134,0,1,0,8.267,0h11.367a3.113,3.113,0,0,0,3.111-3.109V72.43A3.115,3.115,0,0,0,153.078,69.32Zm-55.8,2.086h55.8A1.026,1.026,0,0,1,154.1,72.43v9.3H96.253v-9.3A1.026,1.026,0,0,1,97.276,71.406Zm40.3,41.325a12.4,12.4,0,1,1,12.4-12.4A12.4,12.4,0,0,1,137.577,112.731Zm-1.033,2.014c.342.026.684.053,1.033.053s.691-.028,1.034-.053v1.086h-2.066Zm3.1,12.453a2.067,2.067,0,1,1-4.134,0v-9.3h4.134Zm13.433-2.076H141.711v-8.258a1.033,1.033,0,0,0-1.033-1.034v-1.376a14.467,14.467,0,1,0-6.2,0v1.376a1.034,1.034,0,0,0-1.034,1.034v8.258H97.276a1.025,1.025,0,0,1-1.023-1.024V83.8H154.1v40.3A1.025,1.025,0,0,1,153.078,125.123Z" transform="translate(-7.478 -7.575)"/><path class="a" d="M111.217,80.868h4.134a1.033,1.033,0,0,0,1.034-1.034V75.7a1.033,1.033,0,0,0-1.034-1.033h-4.134a1.033,1.033,0,0,0-1.033,1.033v4.134A1.033,1.033,0,0,0,111.217,80.868Zm1.034-4.134h2.067V78.8H112.25Z" transform="translate(-11.085 -8.779)"/><path class="a" d="M121.887,80.868h4.134a1.033,1.033,0,0,0,1.034-1.034V75.7a1.033,1.033,0,0,0-1.034-1.033h-4.134a1.034,1.034,0,0,0-1.034,1.033v4.134A1.034,1.034,0,0,0,121.887,80.868Zm1.034-4.134h2.066V78.8H122.92Z" transform="translate(-13.488 -8.779)"/><path class="a" d="M100.548,80.868h4.133a1.033,1.033,0,0,0,1.034-1.034V75.7a1.033,1.033,0,0,0-1.034-1.033h-4.133A1.033,1.033,0,0,0,99.514,75.7v4.134A1.033,1.033,0,0,0,100.548,80.868Zm1.033-4.134h2.067V78.8H101.58Z" transform="translate(-8.682 -8.779)"/><path class="d" d="M84.516,112.711v-50.2a2.877,2.877,0,0,1,2.868-2.868h20.655c.566-5.238-.55-10.84,4.373-14.381a6.4,6.4,0,0,0-.9-1.558c-2.825-3.522-7.926-3.452-11.179-8.018-3.145,6.651-11.324,4.7-14.39,9.954C82.76,51.129,78.153,55.42,74.829,60.7c-3.992,6.31-9.288,12.255-11.39,19.159-2.431,7.946-4.429,16.629.872,25.137,2.355,3.776,3.726,7.88,8.138,9.8,3.315,1.446,4.466,4.432,4.915,7.64.332,2.389-.739,5.8,3.224,5.35,2.908-.319,2.875-3.344,2.679-5.695A20.624,20.624,0,0,1,84.516,112.711Z"/></g></svg>